<svg width="914" height="862" viewBox="0 0 914 862" fill="none" xmlns="http://www.w3.org/2000/svg">
<path fill-rule="evenodd" clip-rule="evenodd" d="M40.6624 466.108C9.45272 369.54 38.6108 256.023 99.7815 175.044C158.543 97.2546 260.959 71.8146 355.741 49.0022C437.165 29.4051 521.998 26.0458 600.777 54.4637C673.51 80.7006 731.351 135.505 774.118 199.922C812.876 258.3 811.911 329.569 828.605 397.624C849.369 482.275 926.883 570.967 883.709 646.684C840.737 722.046 722.909 693.133 642.104 724.701C564.827 754.89 503.476 842.411 421.941 827.079C340.356 811.736 314.111 708.758 253.826 651.684C183.697 585.291 70.3608 558 40.6624 466.108Z" fill="#108BF5" fill-opacity="0.1"/>
</svg>
