<svg width="608" height="551" viewBox="0 0 608 551" fill="none" xmlns="http://www.w3.org/2000/svg">
<path fill-rule="evenodd" clip-rule="evenodd" d="M212.135 347.236C148.578 309.322 109.954 233.08 104.528 159.273C99.3154 88.3719 143.21 25.1644 184.185 -32.9313C219.385 -82.8387 264.264 -125.487 321.111 -147.806C373.595 -168.413 431.659 -166.198 486.085 -151.465C535.408 -138.113 569.161 -98.5872 611.047 -69.3179C663.147 -32.9111 748.294 -21.5867 761.053 40.6796C773.752 102.655 695.265 143.486 666.162 199.657C638.33 253.375 646.805 330.855 594.742 361.672C542.646 392.508 478.727 348.692 418.233 346.41C347.859 343.754 272.614 383.315 212.135 347.236Z" fill="#108BF5" fill-opacity="0.1"/>
</svg>

