<svg width="461" height="842" viewBox="0 0 461 842" fill="none" xmlns="http://www.w3.org/2000/svg">
<path fill-rule="evenodd" clip-rule="evenodd" d="M267.434 620.08C232.831 685.498 158.671 727.983 85.2392 737.19C14.6995 746.034 -50.6771 705.44 -110.799 667.5C-162.447 634.908 -207.341 592.276 -232.549 536.649C-255.821 485.291 -256.589 427.19 -244.667 372.081C-233.864 322.137 -196.122 286.4 -169.041 243.068C-135.355 189.168 -128.415 103.552 -66.8854 87.6154C-5.64366 71.753 39.1615 148.041 96.7519 174.224C151.827 199.263 228.77 186.823 262.218 237.236C295.687 287.681 255.208 353.764 256.033 414.296C256.992 484.713 300.361 557.829 267.434 620.08Z" fill="#108BF5" fill-opacity="0.1"/>
</svg>


