<svg width="23" height="23" viewBox="0 0 23 23" fill="none" xmlns="http://www.w3.org/2000/svg">
<path d="M4.50969 0.00598145C2.0322 0.00598145 0.0045166 2.03362 0.0045166 4.51115V18.4915C0.0045166 20.969 2.03215 22.9959 4.50969 22.9959H18.49C20.9675 22.9959 22.9945 20.969 22.9945 18.4915V4.51115C22.9945 2.03366 20.9675 0.00598145 18.49 0.00598145H4.50969ZM5.64281 3.79979C6.83071 3.79979 7.56241 4.57962 7.585 5.60471C7.585 6.60717 6.83066 7.40892 5.61983 7.40892H5.59754C4.43225 7.40892 3.67907 6.60721 3.67907 5.60471C3.67907 4.57965 4.45504 3.79979 5.64278 3.79979H5.64281ZM15.8796 8.59092C18.1642 8.59092 19.8768 10.0841 19.8768 13.2929V19.2833H16.4049V13.6946C16.4049 12.2902 15.9024 11.3321 14.646 11.3321C13.6868 11.3321 13.115 11.9778 12.864 12.6017C12.7723 12.8249 12.7498 13.1366 12.7498 13.4488V19.2833H9.27784C9.27784 19.2833 9.32341 9.81617 9.27784 8.83591H12.7505V10.3154C13.2119 9.60351 14.0371 8.59089 15.8796 8.59089V8.59092ZM3.88386 8.83667H7.35578V19.2833H3.88386V8.83667Z" fill="#F2389E"/>
</svg>
